<svg width="24" height="24" viewBox="0 0 24 24" fill="none" xmlns="http://www.w3.org/2000/svg">
<path d="M17.6836 9.27973L12.9054 2.16976C12.8034 2.0262 12.6675 1.90966 12.5097 1.8303C12.3518 1.75095 12.1768 1.71121 12 1.71455C11.6509 1.71455 11.3018 1.86629 11.0945 2.1806L6.31632 9.27973H1.09086C0.490863 9.27973 -4.57764e-05 9.76746 -4.57764e-05 10.3636C-4.57764e-05 10.4611 0.0108633 10.5587 0.0435905 10.6562L2.8145 20.7034C3.06541 21.6138 3.90541 22.2858 4.90905 22.2858H19.0909C20.0945 22.2858 20.9345 21.6138 21.1963 20.7034L23.9672 10.6562L24 10.3636C24 9.76746 23.509 9.27973 22.909 9.27973H17.6836ZM8.72723 9.27973L12 4.51085L15.2727 9.27973H8.72723ZM12 17.9504C10.8 17.9504 9.81814 16.975 9.81814 15.7828C9.81814 14.5905 10.8 13.6151 12 13.6151C13.2 13.6151 14.1818 14.5905 14.1818 15.7828C14.1818 16.975 13.2 17.9504 12 17.9504Z" fill="white"/>
</svg>
