<svg width="13" height="13" viewBox="0 0 13 13" fill="none" xmlns="http://www.w3.org/2000/svg">
<path d="M6.60002 4.99989H7.73335V3.29989H9.43335V2.16655H7.73335V0.466553H6.60002V2.16655H4.90002V3.29989H6.60002V4.99989ZM4.33335 10.0999C3.71002 10.0999 3.20568 10.6099 3.20568 11.2332C3.20568 11.8566 3.71002 12.3666 4.33335 12.3666C4.95668 12.3666 5.46668 11.8566 5.46668 11.2332C5.46668 10.6099 4.95668 10.0999 4.33335 10.0999ZM10 10.0999C9.37668 10.0999 8.87235 10.6099 8.87235 11.2332C8.87235 11.8566 9.37668 12.3666 10 12.3666C10.6234 12.3666 11.1334 11.8566 11.1334 11.2332C11.1334 10.6099 10.6234 10.0999 10 10.0999ZM4.42968 8.25822L4.44668 8.19022L4.95668 7.26655H9.17835C9.60335 7.26655 9.97735 7.03422 10.17 6.68289L12.3574 2.71055L11.3714 2.16655H11.3657L10.7424 3.29989L9.17835 6.13322H5.20035L5.12668 5.98022L3.85735 3.29989L3.31902 2.16655L2.78635 1.03322H0.93335V2.16655H2.06668L4.10668 6.46755L3.34168 7.85589C3.25102 8.01455 3.20002 8.20155 3.20002 8.39989C3.20002 9.02322 3.71002 9.53322 4.33335 9.53322H11.1334V8.39989H4.57135C4.49768 8.39989 4.42968 8.33755 4.42968 8.25822Z" fill="white"/>
</svg>
