<svg width="296" height="307" viewBox="0 0 296 307" fill="none" xmlns="http://www.w3.org/2000/svg">
<path d="M262.573 233.636L262.567 233.774L269.492 307H218.96L212.41 262.027L209.527 305.847L157.635 305.27L163.147 247.739L167.834 221.072V221.066L168.538 217.053H261.195L261.316 218.506L262.573 233.636Z" fill="#2F2E41"/>
<path d="M129.032 276.085C134.384 277.06 139.964 271.033 141.497 262.623C142.167 258.942 141.951 255.414 141.047 252.529L141.867 247.681L155.638 182.465C155.638 182.465 180.996 131.74 180.996 122.934C180.995 114.128 173.66 109.809 173.66 109.809L163.735 109.902L132.609 185.922L127.004 242.098L126.097 249.806C124.234 252.186 122.787 255.411 122.117 259.092C120.584 267.502 123.681 275.11 129.032 276.085Z" fill="#FFB6B6"/>
<path d="M229.995 78.3853L220.77 57.0518L190.788 62.241L188.77 87.3405L229.995 78.3853Z" fill="#FFB6B6"/>
<path opacity="0.1" d="M229.995 78.3853L220.77 57.0518L190.788 62.241L188.77 87.3405L229.995 78.3853Z" fill="black"/>
<path d="M295.149 122.782C295.149 122.782 273.815 82.9979 269.779 78.9618C267.982 77.1651 265.158 77.1401 262.576 77.6638L232.878 67.4302L222.812 61.7744L222.149 72.5346L189.102 78.4661C189.285 71.9042 190.211 69.4082 190.211 69.4082L178.103 83.5745L154.463 95.1061L154.476 95.21C152.741 95.8155 151.096 96.8517 149.85 98.5656C145.238 104.908 132.553 182.17 132.553 182.17L159.652 187.936L163.34 164.792L165.994 185.629L168.013 224.549C168.013 224.549 204.914 256.261 222.788 244.729C240.662 233.197 262.572 233.774 262.572 233.774L263.119 215.734C263.508 215.112 263.725 214.747 263.725 214.747L263.148 150.755V133.728C267.541 139.847 272.842 145.11 279.004 147.575C299.185 155.647 295.149 122.782 295.149 122.782V122.782Z" fill="#E6E6E6"/>
<path d="M202.645 65.9947C217.879 65.9947 230.228 53.6454 230.228 38.4119C230.228 23.1783 217.879 10.8291 202.645 10.8291C187.412 10.8291 175.062 23.1783 175.062 38.4119C175.062 53.6454 187.412 65.9947 202.645 65.9947Z" fill="#FFB6B6"/>
<path d="M222.433 46.207C222.433 46.207 224.832 37.8122 230.229 38.4118C235.625 39.0115 236.824 34.2144 235.625 31.8159C234.426 29.4174 232.027 17.4249 232.027 17.4249C232.027 17.4249 233.227 9.03015 226.031 7.8309C218.836 6.63165 216.437 5.4324 215.238 3.03389C214.039 0.63539 196.05 -1.76311 190.054 1.83464C184.057 5.4324 179.26 12.3352 175.063 14.2804C170.866 16.2257 167.268 19.8234 169.666 25.8197C172.065 31.8159 175.543 43.5433 175.543 43.5433C175.543 43.5433 181.659 41.41 182.858 45.0077C184.057 48.6055 179.26 43.8085 185.257 34.2144C191.253 24.6204 191.253 15.0264 200.847 18.6242C210.441 22.2219 221.234 21.0227 220.035 28.2182C218.836 35.4137 222.433 46.207 222.433 46.207V46.207Z" fill="#2F2E41"/>
<path d="M220.747 264.872H11.2651C5.34093 264.872 0.521484 260.053 0.521484 254.129V142.853C0.521484 136.929 5.34093 132.109 11.2651 132.109H220.747C226.671 132.109 231.49 136.929 231.49 142.853V254.129C231.49 260.053 226.671 264.872 220.747 264.872Z" fill="white"/>
<path d="M220.747 264.872H11.2651C5.34093 264.872 0.521484 260.053 0.521484 254.129V142.853C0.521484 136.929 5.34093 132.109 11.2651 132.109H220.747C226.671 132.109 231.49 136.929 231.49 142.853V254.129C231.49 260.053 226.671 264.872 220.747 264.872ZM11.2651 133.903C6.33041 133.903 2.31558 137.918 2.31558 142.853V254.129C2.31558 259.064 6.33041 263.078 11.2651 263.078H220.747C225.681 263.078 229.696 259.064 229.696 254.129V142.853C229.696 137.918 225.681 133.903 220.747 133.903H11.2651Z" fill="#3F3D56"/>
<path d="M204.578 145.565C206.064 145.565 207.269 144.36 207.269 142.874C207.269 141.387 206.064 140.183 204.578 140.183C203.092 140.183 201.887 141.387 201.887 142.874C201.887 144.36 203.092 145.565 204.578 145.565Z" fill="#3F3D56"/>
<path d="M211.756 145.565C213.242 145.565 214.447 144.36 214.447 142.874C214.447 141.387 213.242 140.183 211.756 140.183C210.269 140.183 209.064 141.387 209.064 142.874C209.064 144.36 210.269 145.565 211.756 145.565Z" fill="#3F3D56"/>
<path d="M218.931 145.565C220.418 145.565 221.623 144.36 221.623 142.874C221.623 141.387 220.418 140.183 218.931 140.183C217.445 140.183 216.24 141.387 216.24 142.874C216.24 144.36 217.445 145.565 218.931 145.565Z" fill="#3F3D56"/>
<path d="M15.7714 186.381C15.0294 186.381 14.4258 186.984 14.4258 187.726C14.4258 188.088 14.5655 188.423 14.8191 188.67C15.0749 188.932 15.41 189.072 15.7714 189.072H217.137C217.879 189.072 218.483 188.468 218.483 187.726C218.483 187.364 218.343 187.03 218.09 186.783C217.834 186.521 217.499 186.381 217.137 186.381H15.7714Z" fill="#E6E6E6"/>
<path d="M192.019 185.932V189.52H15.7707C15.2773 189.52 14.8288 189.323 14.5058 188.991C14.1739 188.668 13.9766 188.22 13.9766 187.726C13.9766 186.739 14.7839 185.932 15.7707 185.932H192.019Z" fill="#009EDD"/>
<path d="M214.894 179.204H196.953C194.975 179.204 193.365 177.595 193.365 175.616C193.365 173.637 194.975 172.028 196.953 172.028H214.894C216.873 172.028 218.483 173.637 218.483 175.616C218.483 177.595 216.873 179.204 214.894 179.204Z" fill="#E6E6E6"/>
<path d="M97.3817 160.366H17.1175C15.139 160.366 13.5293 158.757 13.5293 156.778C13.5293 154.799 15.139 153.19 17.1175 153.19H97.3817C99.3603 153.19 100.97 154.799 100.97 156.778C100.97 158.757 99.3603 160.366 97.3817 160.366Z" fill="#E6E6E6"/>
<path d="M15.7714 226.748C15.0294 226.748 14.4258 227.351 14.4258 228.093C14.4258 228.455 14.5655 228.79 14.8191 229.037C15.0749 229.299 15.41 229.439 15.7714 229.439H217.137C217.879 229.439 218.483 228.835 218.483 228.093C218.483 227.732 218.343 227.397 218.09 227.15C217.834 226.888 217.499 226.748 217.137 226.748H15.7714Z" fill="#E6E6E6"/>
<path d="M122.946 226.299V229.888H15.7707C15.2773 229.888 14.8288 229.69 14.5058 229.358C14.1739 229.035 13.9766 228.587 13.9766 228.093C13.9766 227.107 14.7839 226.299 15.7707 226.299H122.946Z" fill="#009EDD"/>
<path d="M214.894 219.571H196.953C194.975 219.571 193.365 217.962 193.365 215.983C193.365 214.004 194.975 212.395 196.953 212.395H214.894C216.873 212.395 218.483 214.004 218.483 215.983C218.483 217.962 216.873 219.571 214.894 219.571Z" fill="#E6E6E6"/>
<path d="M246.304 68.1177C261.82 68.1177 274.399 55.8042 274.399 40.6149C274.399 25.4255 261.82 13.1121 246.304 13.1121C230.787 13.1121 218.209 25.4255 218.209 40.6149C218.209 55.8042 230.787 68.1177 246.304 68.1177Z" fill="#009EDD"/>
<path d="M255.839 26.7422C252.099 33.5529 248.358 40.3636 244.618 47.1743C242.234 42.9624 239.863 38.743 237.474 34.5344C236.648 33.0809 234.404 34.3883 235.231 35.8454C238.001 40.7241 240.743 45.6191 243.513 50.4978C243.986 51.332 245.287 51.3514 245.756 50.4978C249.864 43.0163 253.973 35.5347 258.082 28.0532C258.887 26.5872 256.645 25.2751 255.839 26.7422Z" fill="white"/>
<path d="M285.087 113.109L257.096 99.7188C257.096 99.7188 255.972 90.7566 250.722 87.5599C249.83 85.4309 248.803 83.092 247.871 81.2387C245.564 76.6556 249.024 68.0068 246.141 68.0068C243.258 68.0068 238.996 77.1027 239.222 79.5385C239.395 81.4083 240.94 84.6728 241.26 87.5304C237.744 88.8563 234.908 91.1288 233.044 92.9382C231.43 94.504 230.83 96.8402 231.461 98.9985C233.289 105.253 237.856 118.169 244.411 118.169C253.06 118.169 255.366 116.44 255.366 116.44C255.366 116.44 273.24 138.926 286.502 140.656C299.763 142.386 285.087 113.109 285.087 113.109V113.109Z" fill="#FFB6B6"/>
</svg>
